# xmcd
#
# Track frame offsets:
#  151
#  14444
#  28785
#  43034
#  60767
#  74482
#  87407
#  101456
#  116805
#  129202
#
# Disc length: 1895 seconds
#
# Revision: 0
# Processed by: cddbd v1.4PL0 Copyright (c) Steve Scherf et al.
# Submitted via: AltoMP3_Maker 3.0
#
DISCID=7f07650a
DTITLE=Don Williams - Listen To The Radio
DYEAR=1900
DGENRE=
TTITLE0=Listen To The Radio
TTITLE1=If Hollywood Don't Need You
TTITLE2=Don't Stop Loving Me Now
TTITLE3=Only Love
TTITLE4=Fool, Fool Heart
TTITLE5=Mistakes
TTITLE6=I Can't Get To You From Here
TTITLE7=Standin' In A Sea Of Teardrops
TTITLE8=If She Just Helps Me Get Over You
TTITLE9=Help Yourselves To Each Other
EXTD=
EXTT0=
EXTT1=
EXTT2=
EXTT3=
EXTT4=
EXTT5=
EXTT6=
EXTT7=
EXTT8=
EXTT9=
PLAYORDER=
